<svg xmlns="http://www.w3.org/2000/svg"  viewBox="0 0 64 64" width="64px" height="64px" fill-rule="evenodd" clip-rule="evenodd"><linearGradient id="j1ddGqG5VK9yOwH36~WzOa" x1="23.522" x2="23.522" y1="5.226" y2="56.002" gradientUnits="userSpaceOnUse"><stop offset="0" stop-color="#1a6dff"/><stop offset="1" stop-color="#c822ff"/></linearGradient><path fill="url(#j1ddGqG5VK9yOwH36~WzOa)" fill-rule="evenodd" d="M19.435,43.826c-0.552,0-1-0.448-1-1v-0.347	c0-0.277,0.115-0.542,0.318-0.732s0.475-0.285,0.752-0.266l0.12,0.008c0.277,0.02,0.549-0.077,0.752-0.266s0.318-0.454,0.318-0.732	v-1.318c0-0.552,0.448-1,1-1h3.652c0.552,0,1,0.448,1,1v1.391c0,0.552,0.448,1,1,1h0.261c0.552,0,1,0.448,1,1v0.261	c0,0.552-0.448,1-1,1H19.435z" clip-rule="evenodd"/><linearGradient id="j1ddGqG5VK9yOwH36~WzOb" x1="37" x2="37" y1="18.878" y2="43.144" gradientUnits="userSpaceOnUse"><stop offset="0" stop-color="#6dc7ff"/><stop offset="1" stop-color="#e6abff"/></linearGradient><path fill="url(#j1ddGqG5VK9yOwH36~WzOb)" fill-rule="evenodd" d="M31.965,36C31.432,36,31,35.543,31,34.979V24.328	c0-0.564,0.432-1.021,0.965-1.021h0.252c0.533,0,0.965-0.457,0.965-1.021v-0.266c0-0.564,0.432-1.021,0.965-1.021h4.615	c0.533,0,0.965,0.457,0.965,1.021v0.266c0,0.564,0.432,1.021,0.965,1.021h1.343c0.533,0,0.965,0.457,0.965,1.021v8.343	c0,0.564-0.432,1.021-0.965,1.021h-1.343c-0.533,0-0.965,0.457-0.965,1.021v0.266c0,0.564-0.432,1.021-0.965,1.021H31.965z" clip-rule="evenodd"/><linearGradient id="j1ddGqG5VK9yOwH36~WzOc" x1="15.5" x2="15.5" y1="18.878" y2="43.144" gradientUnits="userSpaceOnUse"><stop offset="0" stop-color="#6dc7ff"/><stop offset="1" stop-color="#e6abff"/></linearGradient><path fill="url(#j1ddGqG5VK9yOwH36~WzOc)" fill-rule="evenodd" d="M17.968,36C18.538,36,19,35.543,19,34.979V24.328	c0-0.564-0.462-1.021-1.032-1.021h-0.269c-0.57,0-1.032-0.457-1.032-1.021v-0.266c0-0.564-0.462-1.021-1.032-1.021h-2.603	C12.462,21,12,21.457,12,22.021v10.651c0,0.564,0.462,1.021,1.032,1.021h0.269c0.57,0,1.032,0.457,1.032,1.021v0.266	c0,0.564,0.462,1.021,1.032,1.021H17.968z" clip-rule="evenodd"/><linearGradient id="j1ddGqG5VK9yOwH36~WzOd" x1="32" x2="32" y1="5.226" y2="56.002" gradientUnits="userSpaceOnUse"><stop offset="0" stop-color="#1a6dff"/><stop offset="1" stop-color="#c822ff"/></linearGradient><path fill="url(#j1ddGqG5VK9yOwH36~WzOd)" d="M58.405,18.543C58.027,18.173,57.51,17.96,57,18v-3c0-1.654-1.346-3-3-3h-1	c0-1.103-0.897-2-2-2c0-1.103-0.897-2-2-2h-5c0-1.103-0.897-2-2-2H24c-1.103,0-2,0.897-2,2h-3c-1.103,0-2,0.897-2,2h-1	c-1.654,0-3,1.346-3,3c-1.103,0-2,0.897-2,2h-1c-1.654,0-3,1.346-3,3v2c-1.103,0-2,0.897-2,2v13c0,1.103,0.897,2,2,2	c0,1.103,0.897,2,2,2c0.551,0,1,0.449,1,1v1c0,1.103,0.897,2,2,2v7c0,1.654,1.346,3,3,3c0,1.103,0.897,2,2,2h2c1.654,0,3-1.346,3-3	v-2c0-0.551,0.449-1,1-1h1c0.551,0,1,0.449,1,1v2c0,1.654,1.346,3,3,3h1c1.654,0,3-1.346,3-3v-2c0-0.551,0.449-1,1-1h1	c0.551,0,1,0.449,1,1v2c0,1.654,1.346,3,3,3s3-1.346,3-3v-2c0-0.551,0.449-1,1-1c1.654,0,3-1.346,3-3v-1c1.103,0,2-0.897,2-2h1	c1.654,0,3-1.346,3-3c0-0.551,0.449-1,1-1c1.103,0,2-0.897,2-2c1.654,0,3-1.346,3-3v-2c1.103,0,2-0.897,2-2V19.957	C59,19.427,58.783,18.912,58.405,18.543z M55,32v2c0,0.551-0.449,1-1,1c-1.103,0-2,0.897-2,2c-1.654,0-3,1.346-3,3	c0,0.551-0.449,1-1,1h-1c-1.103,0-2,0.897-2,2c-1.103,0-2,0.897-2,2v1c0,0.551-0.449,1-1,1c-1.654,0-3,1.346-3,3v2	c0,0.551-0.449,1-1,1s-1-0.449-1-1v-2c0-1.654-1.346-3-3-3h-1c-1.654,0-3,1.346-3,3v2c0,0.551-0.449,1-1,1h-1c-0.551,0-1-0.449-1-1	v-2c0-1.654-1.346-3-3-3h-1c-1.654,0-3,1.346-3,3v2c0,0.551-0.449,1-1,1h-2c0-1.103-0.897-2-2-2c-0.551,0-1-0.449-1-1v-7	c0-1.103-0.897-2-2-2v-1c0-1.654-1.346-3-3-3c0-1.103-0.897-2-2-2V22c1.103,0,2-0.897,2-2v-2c0-0.551,0.449-1,1-1h1	c1.103,0,2-0.897,2-2c1.103,0,2-0.897,2-2c0-0.551,0.449-1,1-1h1c1.103,0,2-0.897,2-2h3c1.103,0,2-0.897,2-2h18c0,1.103,0.897,2,2,2	h5c0,1.103,0.897,2,2,2c0,1.103,0.897,2,2,2h1c0.551,0,1,0.449,1,1v3c0,0.529,0.217,1.045,0.595,1.414	c0.378,0.371,0.893,0.573,1.405,0.543V21h-5v2h5v3h-5v2h5v2C55.897,30,55,30.897,55,32z"/></svg>